<svg width="35" height="35" viewBox="0 0 35 35" fill="none" xmlns="http://www.w3.org/2000/svg">
<path d="M15.333 0.333374C23.613 0.333374 30.333 7.05337 30.333 15.3334C30.333 23.6134 23.613 30.3334 15.333 30.3334C7.05301 30.3334 0.333008 23.6134 0.333008 15.3334C0.333008 7.05337 7.05301 0.333374 15.333 0.333374ZM15.333 27C21.778 27 26.9997 21.7784 26.9997 15.3334C26.9997 8.88671 21.778 3.66671 15.333 3.66671C8.88634 3.66671 3.66634 8.88671 3.66634 15.3334C3.66634 21.7784 8.88634 27 15.333 27ZM29.4747 27.1184L34.1897 31.8317L31.8313 34.19L27.118 29.475L29.4747 27.1184Z" fill="white"/>
</svg>
