<svg id="visual" viewBox="0 0 900 50" width="900" height="50" xmlns="http://www.w3.org/2000/svg" xmlns:xlink="http://www.w3.org/1999/xlink" version="1.1"><path d="M0 32L11.5 31.7C23 31.3 46 30.7 69 30.5C92 30.3 115 30.7 138.2 31.7C161.3 32.7 184.7 34.3 207.8 35C231 35.7 254 35.3 277 36.7C300 38 323 41 346 40.2C369 39.3 392 34.7 415.2 30.7C438.3 26.7 461.7 23.3 484.8 23.2C508 23 531 26 554 30C577 34 600 39 623 40.3C646 41.7 669 39.3 692.2 40C715.3 40.7 738.7 44.3 761.8 45.7C785 47 808 46 831 43.2C854 40.3 877 35.7 888.5 33.3L900 31L900 51L888.5 51C877 51 854 51 831 51C808 51 785 51 761.8 51C738.7 51 715.3 51 692.2 51C669 51 646 51 623 51C600 51 577 51 554 51C531 51 508 51 484.8 51C461.7 51 438.3 51 415.2 51C392 51 369 51 346 51C323 51 300 51 277 51C254 51 231 51 207.8 51C184.7 51 161.3 51 138.2 51C115 51 92 51 69 51C46 51 23 51 11.5 51L0 51Z" fill="#333333" stroke-linecap="round" stroke-linejoin="miter"></path></svg>