<svg width="259" height="116" viewBox="0 0 259 116" fill="none" xmlns="http://www.w3.org/2000/svg">
<rect x="1.5" y="11.5" width="248" height="103" rx="11.5" fill="#915786" stroke="white" stroke-width="3"/>
<rect x="9.5" y="1.5" width="248" height="103" rx="11.5" fill="white" stroke="#915786" stroke-width="3"/>
<path d="M92.21 64.42C91.07 64.42 90 64.28 89 64C88 63.72 87.11 63.31 86.33 62.77C85.57 62.23 84.93 61.57 84.41 60.79C83.91 60.01 83.58 59.11 83.42 58.09L87.71 57.19C88.03 58.47 88.58 59.4 89.36 59.98C90.14 60.56 91.11 60.85 92.27 60.85C93.35 60.85 94.18 60.62 94.76 60.16C95.36 59.7 95.66 59.06 95.66 58.24C95.66 57.76 95.53 57.36 95.27 57.04C95.03 56.7 94.7 56.41 94.28 56.17C93.86 55.93 93.37 55.73 92.81 55.57C92.27 55.39 91.7 55.21 91.1 55.03C90.3 54.79 89.49 54.53 88.67 54.25C87.85 53.95 87.1 53.57 86.42 53.11C85.76 52.63 85.22 52.04 84.8 51.34C84.38 50.62 84.17 49.72 84.17 48.64C84.17 47.7 84.35 46.85 84.71 46.09C85.09 45.31 85.61 44.65 86.27 44.11C86.93 43.55 87.72 43.12 88.64 42.82C89.56 42.52 90.57 42.37 91.67 42.37C92.61 42.37 93.53 42.48 94.43 42.7C95.35 42.9 96.18 43.23 96.92 43.69C97.68 44.13 98.33 44.72 98.87 45.46C99.41 46.18 99.8 47.05 100.04 48.07L96.14 48.97C95.78 47.91 95.26 47.14 94.58 46.66C93.92 46.16 93.04 45.91 91.94 45.91C90.92 45.91 90.1 46.14 89.48 46.6C88.86 47.04 88.55 47.64 88.55 48.4C88.55 48.82 88.66 49.18 88.88 49.48C89.12 49.76 89.43 50.01 89.81 50.23C90.21 50.43 90.67 50.61 91.19 50.77C91.71 50.91 92.26 51.06 92.84 51.22C93.66 51.44 94.5 51.7 95.36 52C96.22 52.28 97 52.67 97.7 53.17C98.42 53.65 99.01 54.27 99.47 55.03C99.93 55.79 100.16 56.76 100.16 57.94C100.16 58.92 99.97 59.81 99.59 60.61C99.21 61.39 98.67 62.07 97.97 62.65C97.29 63.21 96.46 63.65 95.48 63.97C94.5 64.27 93.41 64.42 92.21 64.42ZM118.049 57.28H106.559C106.659 58.5 107.079 59.43 107.819 60.07C108.559 60.71 109.469 61.03 110.549 61.03C111.349 61.03 112.039 60.86 112.619 60.52C113.219 60.18 113.659 59.66 113.939 58.96L117.779 59.47C117.279 61.03 116.389 62.23 115.109 63.07C113.829 63.89 112.319 64.3 110.579 64.3C109.339 64.3 108.219 64.12 107.219 63.76C106.219 63.4 105.359 62.88 104.639 62.2C103.939 61.52 103.399 60.7 103.019 59.74C102.639 58.76 102.449 57.66 102.449 56.44C102.449 55.22 102.639 54.13 103.019 53.17C103.419 52.19 103.969 51.36 104.669 50.68C105.389 50 106.239 49.48 107.219 49.12C108.199 48.76 109.279 48.58 110.459 48.58C111.539 48.58 112.539 48.74 113.459 49.06C114.399 49.36 115.209 49.83 115.889 50.47C116.569 51.11 117.099 51.92 117.479 52.9C117.879 53.86 118.079 55 118.079 56.32L118.049 57.28ZM110.459 51.64C109.419 51.64 108.569 51.9 107.909 52.42C107.269 52.94 106.849 53.71 106.649 54.73H113.969C113.869 53.75 113.499 52.99 112.859 52.45C112.219 51.91 111.419 51.64 110.459 51.64ZM134.302 61.27C134.302 61.73 134.312 62.16 134.332 62.56C134.352 62.94 134.432 63.29 134.572 63.61V64H130.462L130.282 61.93C129.762 62.73 129.032 63.33 128.092 63.73C127.172 64.11 126.212 64.3 125.212 64.3C124.612 64.3 124.012 64.23 123.412 64.09C122.832 63.95 122.302 63.72 121.822 63.4C121.362 63.06 120.992 62.63 120.712 62.11C120.432 61.59 120.292 60.95 120.292 60.19C120.292 59.35 120.462 58.65 120.802 58.09C121.142 57.51 121.582 57.03 122.122 56.65C122.662 56.27 123.272 55.97 123.952 55.75C124.632 55.53 125.312 55.35 125.992 55.21L128.752 54.58C129.152 54.48 129.482 54.36 129.742 54.22C130.002 54.08 130.132 53.83 130.132 53.47C130.132 52.77 129.862 52.27 129.322 51.97C128.802 51.67 128.192 51.52 127.492 51.52C126.652 51.52 125.962 51.72 125.422 52.12C124.882 52.5 124.532 53.07 124.372 53.83L120.382 53.23C120.722 51.61 121.522 50.43 122.782 49.69C124.042 48.95 125.632 48.58 127.552 48.58C129.752 48.58 131.422 49.05 132.562 49.99C133.722 50.93 134.302 52.31 134.302 54.13V61.27ZM126.442 61.42C126.942 61.42 127.422 61.32 127.882 61.12C128.362 60.92 128.782 60.63 129.142 60.25C129.522 59.85 129.822 59.36 130.042 58.78C130.262 58.18 130.372 57.49 130.372 56.71L126.652 57.67C126.072 57.79 125.552 58.01 125.092 58.33C124.652 58.63 124.432 59.1 124.432 59.74C124.432 60.3 124.622 60.72 125.002 61C125.382 61.28 125.862 61.42 126.442 61.42ZM142.027 51.04C142.487 50.3 143.157 49.71 144.037 49.27C144.917 48.81 145.957 48.58 147.157 48.58V52.45C145.377 52.45 144.077 52.79 143.257 53.47C142.437 54.13 142.027 55.33 142.027 57.07V64H137.857V48.88H142.027V51.04ZM156.695 64.3C155.495 64.3 154.395 64.11 153.395 63.73C152.395 63.35 151.535 62.81 150.815 62.11C150.095 61.41 149.535 60.58 149.135 59.62C148.735 58.64 148.535 57.57 148.535 56.41C148.535 55.25 148.735 54.19 149.135 53.23C149.535 52.27 150.095 51.45 150.815 50.77C151.535 50.07 152.395 49.53 153.395 49.15C154.395 48.77 155.495 48.58 156.695 48.58C158.635 48.58 160.265 49.06 161.585 50.02C162.925 50.98 163.775 52.37 164.135 54.19L160.295 54.55C160.075 53.63 159.645 52.95 159.005 52.51C158.385 52.05 157.595 51.82 156.635 51.82C155.435 51.82 154.475 52.25 153.755 53.11C153.035 53.95 152.675 55.05 152.675 56.41C152.675 57.79 153.035 58.91 153.755 59.77C154.475 60.61 155.435 61.03 156.635 61.03C157.595 61.03 158.385 60.81 159.005 60.37C159.645 59.91 160.075 59.22 160.295 58.3L164.135 58.66C163.955 59.56 163.645 60.36 163.205 61.06C162.765 61.76 162.215 62.35 161.555 62.83C160.915 63.31 160.175 63.68 159.335 63.94C158.515 64.18 157.635 64.3 156.695 64.3ZM176.247 48.58C178.027 48.58 179.387 49.06 180.327 50.02C181.287 50.98 181.767 52.42 181.767 54.34V64H177.597V54.97C177.597 53.85 177.327 53.06 176.787 52.6C176.247 52.12 175.537 51.88 174.657 51.88C174.237 51.88 173.817 51.94 173.397 52.06C172.997 52.18 172.627 52.39 172.287 52.69C171.967 52.99 171.707 53.39 171.507 53.89C171.307 54.39 171.207 55.02 171.207 55.78V64H167.037V41.5H171.207V50.77C171.767 50.09 172.467 49.56 173.307 49.18C174.147 48.78 175.127 48.58 176.247 48.58Z" fill="#4F4F4F"/>
</svg>
