<svg width="17" height="18" viewBox="0 0 17 18" fill="none" xmlns="http://www.w3.org/2000/svg">
<path d="M7.5603 0.666656C11.7003 0.666656 15.0603 4.02666 15.0603 8.16666C15.0603 12.3067 11.7003 15.6667 7.5603 15.6667C3.4203 15.6667 0.0603027 12.3067 0.0603027 8.16666C0.0603027 4.02666 3.4203 0.666656 7.5603 0.666656ZM7.5603 14C10.7828 14 13.3936 11.3892 13.3936 8.16666C13.3936 4.94332 10.7828 2.33332 7.5603 2.33332C4.33697 2.33332 1.72697 4.94332 1.72697 8.16666C1.72697 11.3892 4.33697 14 7.5603 14ZM14.6311 14.0592L16.9886 16.4158L15.8095 17.595L13.4528 15.2375L14.6311 14.0592Z" fill="#4F4F4F"/>
</svg>
